<?xml version="1.0" encoding="UTF-8" standalone="no"?>
<!-- Created with Inkscape (http://www.inkscape.org/) -->

<svg
   xmlns:dc="http://purl.org/dc/elements/1.1/"
   xmlns:cc="http://creativecommons.org/ns#"
   xmlns:rdf="http://www.w3.org/1999/02/22-rdf-syntax-ns#"
   xmlns:svg="http://www.w3.org/2000/svg"
   xmlns="http://www.w3.org/2000/svg"
   xmlns:sodipodi="http://sodipodi.sourceforge.net/DTD/sodipodi-0.dtd"
   xmlns:inkscape="http://www.inkscape.org/namespaces/inkscape"
   width="173.35205mm"
   height="143.99225mm"
   viewBox="0 0 173.35205 143.99225"
   version="1.1"
   id="svg8"
   inkscape:version="0.92.3 (2405546, 2018-03-11)"
   sodipodi:docname="realtime-assessment.svg"
   style="enable-background:new">
  <defs
     id="defs2" />
  <sodipodi:namedview
     id="base"
     pagecolor="#ffffff"
     bordercolor="#666666"
     borderopacity="1.0"
     inkscape:pageopacity="0.0"
     inkscape:pageshadow="2"
     inkscape:zoom="0.7"
     inkscape:cx="197.64954"
     inkscape:cy="254.06805"
     inkscape:document-units="mm"
     inkscape:current-layer="layer3"
     showgrid="false"
     inkscape:window-width="1366"
     inkscape:window-height="713"
     inkscape:window-x="0"
     inkscape:window-y="27"
     inkscape:window-maximized="1" />
  <metadata
     id="metadata5">
    <rdf:RDF>
      <cc:Work
         rdf:about="">
        <dc:format>image/svg+xml</dc:format>
        <dc:type
           rdf:resource="http://purl.org/dc/dcmitype/StillImage" />
        <dc:title />
      </cc:Work>
    </rdf:RDF>
  </metadata>
  <g
     inkscape:groupmode="layer"
     id="layer3"
     inkscape:label="Layer 3"
     style="display:inline"
     transform="translate(-20.746994,-19.541057)">
    <rect
       style="display:inline;opacity:1;fill:#ffffff;fill-opacity:1;stroke:#373748;stroke-width:3.23000002;stroke-linejoin:round;stroke-miterlimit:4;stroke-dasharray:none;stroke-opacity:1;paint-order:markers fill stroke"
       id="rect861"
       width="151.00693"
       height="120.68852"
       x="22.361994"
       y="21.156057"
       rx="5.2136102"
       ry="5.9438868" />
    <path
       style="fill:#ffffff;fill-opacity:1;stroke:#f05500;stroke-width:1;stroke-miterlimit:4;stroke-dasharray:none;stroke-opacity:1;paint-order:markers fill stroke"
       id="path817-06"
       sodipodi:type="arc"
       sodipodi:cx="48.791985"
       sodipodi:cy="89.13549"
       sodipodi:rx="10.003781"
       sodipodi:ry="10.003781"
       sodipodi:start="3.1415927"
       sodipodi:end="0"
       d="M 38.788203,89.13549 A 10.003781,10.003781 0 0 1 48.791985,79.131709 10.003781,10.003781 0 0 1 58.795766,89.13549"
       sodipodi:open="true" />
    <circle
       style="fill:#ffffff;fill-opacity:1;stroke:#f05500;stroke-width:1;stroke-linejoin:round;stroke-miterlimit:4;stroke-dasharray:none;stroke-opacity:1"
       id="path815-3"
       cx="48.37516"
       cy="78.226128"
       r="5.1582003" />
    <rect
       style="fill:#ff0000;fill-opacity:1;stroke:#ffffff;stroke-width:0.5;stroke-linejoin:miter;stroke-miterlimit:4;stroke-dasharray:none;stroke-opacity:1;paint-order:markers fill stroke"
       id="rect862-20"
       width="11.759859"
       height="8.8198938"
       x="66.960098"
       y="76.179321" />
    <path
       style="fill:#ffffff;fill-opacity:1;stroke:#f05500;stroke-width:1;stroke-miterlimit:4;stroke-dasharray:none;stroke-opacity:1;paint-order:markers fill stroke"
       id="path817"
       sodipodi:type="arc"
       sodipodi:cx="48.791985"
       sodipodi:cy="45.85722"
       sodipodi:rx="10.003781"
       sodipodi:ry="10.003781"
       sodipodi:start="3.1415927"
       sodipodi:end="0"
       d="M 38.788203,45.857219 A 10.003781,10.003781 0 0 1 48.791985,35.853438 10.003781,10.003781 0 0 1 58.795766,45.85722"
       sodipodi:open="true" />
    <circle
       style="fill:#ffffff;fill-opacity:1;stroke:#f05500;stroke-width:1;stroke-linejoin:round;stroke-miterlimit:4;stroke-dasharray:none;stroke-opacity:1"
       id="path815"
       cx="48.37516"
       cy="34.947853"
       r="5.1582003" />
    <rect
       style="fill:#ff0000;fill-opacity:1;stroke:#ffffff;stroke-width:0.5;stroke-linejoin:miter;stroke-miterlimit:4;stroke-dasharray:none;stroke-opacity:1;paint-order:markers fill stroke"
       id="rect862"
       width="11.759859"
       height="8.8198938"
       x="66.960098"
       y="32.901051" />
    <rect
       style="display:inline;opacity:1;fill:#00ff00;fill-opacity:1;stroke:#ffffff;stroke-width:0.5;stroke-linejoin:miter;stroke-miterlimit:4;stroke-dasharray:none;stroke-opacity:1;paint-order:markers fill stroke"
       id="rect862-6"
       width="11.759859"
       height="8.8198938"
       x="79.513733"
       y="32.901051" />
    <rect
       style="display:inline;opacity:1;fill:#ff0000;fill-opacity:1;stroke:#ffffff;stroke-width:0.5;stroke-linejoin:miter;stroke-miterlimit:4;stroke-dasharray:none;stroke-opacity:1;paint-order:markers fill stroke"
       id="rect862-6-2"
       width="11.759859"
       height="8.8198938"
       x="92.067291"
       y="32.901051" />
    <rect
       style="display:inline;opacity:1;fill:#00ff00;fill-opacity:1;stroke:#ffffff;stroke-width:0.5;stroke-linejoin:miter;stroke-miterlimit:4;stroke-dasharray:none;stroke-opacity:1;paint-order:markers fill stroke"
       id="rect862-6-2-9"
       width="11.759859"
       height="8.8198938"
       x="104.62098"
       y="32.901051" />
    <rect
       style="display:inline;opacity:1;fill:#00ff00;fill-opacity:1;stroke:#ffffff;stroke-width:0.5;stroke-linejoin:miter;stroke-miterlimit:4;stroke-dasharray:none;stroke-opacity:1;paint-order:markers fill stroke"
       id="rect862-6-2-9-1"
       width="11.759859"
       height="8.8198938"
       x="117.17457"
       y="32.901051" />
    <path
       style="fill:#ffffff;fill-opacity:1;stroke:#f05500;stroke-width:1;stroke-miterlimit:4;stroke-dasharray:none;stroke-opacity:1;paint-order:markers fill stroke"
       id="path817-30"
       sodipodi:type="arc"
       sodipodi:cx="48.791985"
       sodipodi:cy="110.77464"
       sodipodi:rx="10.003781"
       sodipodi:ry="10.003781"
       sodipodi:start="3.1415927"
       sodipodi:end="0"
       d="m 38.788203,110.77464 a 10.003781,10.003781 0 0 1 10.003782,-10.00378 10.003781,10.003781 0 0 1 10.003781,10.00378"
       sodipodi:open="true" />
    <circle
       style="fill:#ffffff;fill-opacity:1;stroke:#f05500;stroke-width:1;stroke-linejoin:round;stroke-miterlimit:4;stroke-dasharray:none;stroke-opacity:1"
       id="path815-78"
       cx="48.37516"
       cy="99.865273"
       r="5.1582003" />
    <rect
       style="fill:#00ff00;fill-opacity:1;stroke:#ffffff;stroke-width:0.5;stroke-linejoin:miter;stroke-miterlimit:4;stroke-dasharray:none;stroke-opacity:1;paint-order:markers fill stroke"
       id="rect862-68"
       width="11.759859"
       height="8.8198938"
       x="66.960098"
       y="97.818474" />
    <rect
       style="display:inline;opacity:1;fill:#00ff00;fill-opacity:1;stroke:#ffffff;stroke-width:0.5;stroke-linejoin:miter;stroke-miterlimit:4;stroke-dasharray:none;stroke-opacity:1;paint-order:markers fill stroke"
       id="rect862-6-8"
       width="11.759859"
       height="8.8198938"
       x="79.513733"
       y="97.818474" />
    <rect
       style="display:inline;opacity:1;fill:#ff0000;fill-opacity:1;stroke:#ffffff;stroke-width:0.5;stroke-linejoin:miter;stroke-miterlimit:4;stroke-dasharray:none;stroke-opacity:1;paint-order:markers fill stroke"
       id="rect862-6-2-4"
       width="11.759859"
       height="8.8198938"
       x="92.067291"
       y="97.818474" />
    <rect
       style="display:inline;opacity:1;fill:#00ff00;fill-opacity:1;stroke:#ffffff;stroke-width:0.5;stroke-linejoin:miter;stroke-miterlimit:4;stroke-dasharray:none;stroke-opacity:1;paint-order:markers fill stroke"
       id="rect862-6-2-9-3"
       width="11.759859"
       height="8.8198938"
       x="104.62098"
       y="97.818474" />
    <rect
       style="display:inline;opacity:1;fill:#00ff00;fill-opacity:1;stroke:#ffffff;stroke-width:0.5;stroke-linejoin:miter;stroke-miterlimit:4;stroke-dasharray:none;stroke-opacity:1;paint-order:markers fill stroke"
       id="rect862-6-2-9-1-1"
       width="11.759859"
       height="8.8198938"
       x="117.17457"
       y="97.818474" />
    <path
       style="fill:#ffffff;fill-opacity:1;stroke:#f05500;stroke-width:1;stroke-miterlimit:4;stroke-dasharray:none;stroke-opacity:1;paint-order:markers fill stroke"
       id="path817-0"
       sodipodi:type="arc"
       sodipodi:cx="48.791985"
       sodipodi:cy="132.41377"
       sodipodi:rx="10.003781"
       sodipodi:ry="10.003781"
       sodipodi:start="3.1415927"
       sodipodi:end="0"
       d="m 38.788203,132.41377 a 10.003781,10.003781 0 0 1 10.003782,-10.00378 10.003781,10.003781 0 0 1 10.003781,10.00378"
       sodipodi:open="true" />
    <circle
       style="fill:#ffffff;fill-opacity:1;stroke:#f05500;stroke-width:1;stroke-linejoin:round;stroke-miterlimit:4;stroke-dasharray:none;stroke-opacity:1"
       id="path815-6"
       cx="48.37516"
       cy="121.5044"
       r="5.1582003" />
    <rect
       style="fill:#00ff00;fill-opacity:1;stroke:#ffffff;stroke-width:0.5;stroke-linejoin:miter;stroke-miterlimit:4;stroke-dasharray:none;stroke-opacity:1;paint-order:markers fill stroke"
       id="rect862-8"
       width="11.759859"
       height="8.8198938"
       x="66.960098"
       y="119.4576" />
    <rect
       style="display:inline;opacity:1;fill:#00ff00;fill-opacity:1;stroke:#ffffff;stroke-width:0.5;stroke-linejoin:miter;stroke-miterlimit:4;stroke-dasharray:none;stroke-opacity:1;paint-order:markers fill stroke"
       id="rect862-6-9"
       width="11.759859"
       height="8.8198938"
       x="79.513733"
       y="119.4576" />
    <rect
       style="display:inline;opacity:1;fill:#ff0000;fill-opacity:1;stroke:#ffffff;stroke-width:0.5;stroke-linejoin:miter;stroke-miterlimit:4;stroke-dasharray:none;stroke-opacity:1;paint-order:markers fill stroke"
       id="rect862-6-2-26"
       width="11.759859"
       height="8.8198938"
       x="92.067291"
       y="119.4576" />
  </g>
  <g
     inkscape:groupmode="layer"
     id="layer4"
     inkscape:label="Layer 4"
     transform="translate(-20.746994,-19.541057)">
    <g
       id="g1276" />
    <circle
       r="27.025299"
       cy="135.03717"
       cx="165.59135"
       id="path1273"
       style="opacity:1;fill:#ffffff;fill-opacity:1;stroke:#ffffff;stroke-width:0.5;stroke-linejoin:miter;stroke-miterlimit:4;stroke-dasharray:none;stroke-opacity:1;paint-order:markers fill stroke" />
    <path
       style="display:inline;opacity:1;fill:#373848;fill-opacity:1;stroke-width:0.11077378"
       d="m 163.19017,163.45879 c -6.88952,-0.71039 -12.97121,-3.63952 -17.72552,-8.53714 -4.15916,-4.2845 -6.78908,-9.58343 -7.71775,-15.55014 -0.34565,-2.22089 -0.34565,-6.08716 0,-8.30805 0.47971,-3.08215 1.27089,-5.56843 2.67903,-8.4188 1.47816,-2.99211 3.2364,-5.40003 5.66325,-7.75587 4.28452,-4.15918 9.58345,-6.78911 15.55016,-7.71776 2.22087,-0.34566 6.08715,-0.34566 8.30803,0 8.06344,1.25499 15.02767,5.71819 19.56413,12.53812 0.89311,1.34269 2.34914,4.22686 2.91276,5.76976 0.56603,1.54952 1.13989,3.81343 1.41554,5.58455 0.34566,2.22089 0.34566,6.08716 0,8.30805 -0.47054,3.02336 -1.25578,5.51082 -2.62262,8.30803 -1.45095,2.96937 -2.98168,5.09721 -5.42311,7.53865 -2.44145,2.44145 -4.5693,3.97216 -7.53867,5.42313 -2.79083,1.36372 -5.3406,2.16842 -8.27384,2.61121 -1.7063,0.25758 -5.24997,0.36519 -6.79139,0.20626 z m 4.94539,-3.54081 c 7.91864,-0.77885 14.93596,-5.26031 19.0492,-12.16538 5.71706,-9.59748 4.13127,-22.03463 -3.8241,-29.99198 -0.73642,-0.73658 -1.69337,-1.61796 -2.12656,-1.95858 -9.14305,-7.18942 -21.75745,-7.18887 -30.88148,10e-4 -1.013,0.79827 -3.17505,2.96035 -3.97335,3.97332 -5.64255,7.16014 -6.96133,16.68039 -3.4656,25.01797 1.28337,3.06086 2.95281,5.52066 5.42284,7.99008 4.61382,4.6127 10.69656,7.16243 17.25126,7.2313 0.77033,0.008 1.91684,-0.036 2.54779,-0.098 z m -3.06774,-23.08393 c -0.44562,-0.19407 -0.91145,-0.75996 -0.99151,-1.20443 -0.0354,-0.19624 -0.0498,-4.50298 -0.032,-9.57059 0.0318,-9.10787 0.0348,-9.21735 0.26055,-9.5197 0.43404,-0.58127 0.78806,-0.76264 1.4886,-0.76264 0.70053,0 1.05455,0.18141 1.48861,0.76264 0.22527,0.30167 0.22879,0.41914 0.25814,8.60581 l 0.0298,8.29997 h 6.81408 c 7.55285,0 7.2998,-0.0233 7.87241,0.72733 0.26483,0.34721 0.31924,0.52531 0.31924,1.04503 0,0.50961 -0.0557,0.69951 -0.29839,1.0177 -0.60364,0.79142 -0.17055,0.75518 -8.96798,0.75036 -6.32049,-0.004 -7.97124,-0.0338 -8.24139,-0.15158 z"
       id="path1255"
       inkscape:connector-curvature="0" />
  </g>
  <g
     inkscape:label="Layer 1"
     inkscape:groupmode="layer"
     id="layer1"
     style="display:inline;opacity:1"
     transform="translate(-20.746994,-19.541057)">
    <path
       style="fill:#ffffff;fill-opacity:1;stroke:#f05500;stroke-width:1;stroke-miterlimit:4;stroke-dasharray:none;stroke-opacity:1;paint-order:markers fill stroke"
       id="path817-3"
       sodipodi:type="arc"
       sodipodi:cx="48.791985"
       sodipodi:cy="67.496353"
       sodipodi:rx="10.003781"
       sodipodi:ry="10.003781"
       sodipodi:start="3.1415927"
       sodipodi:end="0"
       d="M 38.788203,67.496353 A 10.003781,10.003781 0 0 1 48.791985,57.492572 10.003781,10.003781 0 0 1 58.795766,67.496353"
       sodipodi:open="true" />
    <circle
       style="fill:#ffffff;fill-opacity:1;stroke:#f05500;stroke-width:1;stroke-linejoin:round;stroke-miterlimit:4;stroke-dasharray:none;stroke-opacity:1"
       id="path815-7"
       cx="48.37516"
       cy="56.58699"
       r="5.1582003" />
    <rect
       style="fill:#00ff00;fill-opacity:1;stroke:#ffffff;stroke-width:0.5;stroke-linejoin:miter;stroke-miterlimit:4;stroke-dasharray:none;stroke-opacity:1;paint-order:markers fill stroke"
       id="rect862-4"
       width="11.759859"
       height="8.8198938"
       x="66.960098"
       y="54.540188" />
    <rect
       style="display:inline;opacity:1;fill:#00ff00;fill-opacity:1;stroke:#ffffff;stroke-width:0.5;stroke-linejoin:miter;stroke-miterlimit:4;stroke-dasharray:none;stroke-opacity:1;paint-order:markers fill stroke"
       id="rect862-6-5"
       width="11.759859"
       height="8.8198938"
       x="79.513733"
       y="54.540188" />
    <rect
       style="display:inline;opacity:1;fill:#ff0000;fill-opacity:1;stroke:#ffffff;stroke-width:0.5;stroke-linejoin:miter;stroke-miterlimit:4;stroke-dasharray:none;stroke-opacity:1;paint-order:markers fill stroke"
       id="rect862-6-2-2"
       width="11.759859"
       height="8.8198938"
       x="92.067291"
       y="54.540188" />
    <rect
       style="display:inline;opacity:1;fill:#ff0000;fill-opacity:1;stroke:#ffffff;stroke-width:0.5;stroke-linejoin:miter;stroke-miterlimit:4;stroke-dasharray:none;stroke-opacity:1;paint-order:markers fill stroke"
       id="rect862-6-2-9-5"
       width="11.759859"
       height="8.8198938"
       x="104.62098"
       y="54.540188" />
  </g>
  <g
     inkscape:groupmode="layer"
     id="layer2"
     inkscape:label="Layer 2"
     style="display:inline"
     transform="translate(-20.746994,-19.541057)" />
</svg>
